<svg xmlns="http://www.w3.org/2000/svg" width="100%" height="100%"><defs><font id="nokiafc22" horiz-adv-x="1275"><font-face alphabetic="0" ascent="2048" descent="-512" font-family="Nokia Cellphone FC" panose-1="2 0 8 0 0 2 0 4 0 0" units-per-em="2048"/><glyph glyph-name="visiblespace" horiz-adv-x="768"/><glyph d="M0 256H512V0H0V256ZM512 512H0V1792H512V512Z" glyph-name="exclam" horiz-adv-x="768" unicode="!"/><glyph d="M512 1792H768V1280H512V1792ZM0 1792H256V1280H0V1792Z" glyph-name="quotedbl" horiz-adv-x="1024" unicode="&quot;"/><glyph d="M512 768H768V1024H512V768ZM1280 1536V1024H1024V768H1280V256H1024V0H768V256H512V0H256V256H0V768H256V1024H0V1536H256V1792H512V1536H768V1792H1024V1536H1280Z" glyph-name="numbersign" horiz-adv-x="1536" unicode="#"/><glyph d="M512 1024H768V1280H512V1024ZM512 512V256H768V512H512ZM768 0H512V-256H256V0H0V256H256V768H0V1280H256V1792H512V1536H768V1792H1024V1536H1280V1280H1024V768H1280V256H1024V-256H768V0Z" glyph-name="dollar" horiz-adv-x="1536" unicode="$"/><glyph d="M1024 0V512H1536V0H1024ZM0 1792H512V1280H0V1792ZM1024 768H768V256H512V0H256V512H512V1024H768V1536H1024V1792H1280V1275H1024V768Z" glyph-name="percent" horiz-adv-x="1792" unicode="%"/><glyph d="M768 1280V1536H512V1280H768ZM768 256V768H512V256H768ZM1280 256H1024V0H256V256H0V1024H256V1280H0V1536H256V1792H1024V1536H1280V1280H1024V768H1280V1024H1536V0H1280V256Z" glyph-name="ampersand" horiz-adv-x="1792" unicode="&amp;"/><glyph d="M0 1792H256V1280H0V1792Z" glyph-name="quotesingle" horiz-adv-x="512" unicode="'"/><glyph d="M768 0V-256H512V0H768ZM512 1792H768V1536H512V1792ZM256 0V256H0V1280H256V1536H512V0H256Z" glyph-name="parenleft" horiz-adv-x="1024" unicode="("/><glyph d="M256 0V1536H512V1280H768V256H512V0H256ZM256 1536H0V1792H256V1536ZM256 0V-256H0V0H256Z" glyph-name="parenright" horiz-adv-x="1024" unicode=")"/><glyph d="M1280 768V256H1024V512H768V0H512V512H256V256H0V768H256V1024H0V1536H256V1280H512V1792H768V1280H1024V1536H1280V1024H1024V768H1280Z" glyph-name="asterisk" horiz-adv-x="1536" unicode="*"/><glyph d="M768 256H512V768H0V1024H512V1536H768V1024H1280V768H768V256Z" glyph-name="plus" horiz-adv-x="1536" unicode="+"/><glyph d="M0 256H256V512H512V0H256V-256H0V256Z" glyph-name="comma" horiz-adv-x="768" unicode=","/><glyph d="M0 768V1024H1024V768H0Z" glyph-name="hyphen" horiz-adv-x="1280" unicode="-"/><glyph d="M0 512H512V0H0V512Z" glyph-name="period" horiz-adv-x="768" unicode="."/><glyph d="M512 507H256V0H0V768H256V1280H512V1797H768V1024H512V507Z" glyph-name="slash" horiz-adv-x="1024" unicode="/"/><glyph d="M768 256V1536H512V256H768ZM256 0V256H0V1536H256V1792H1024V1536H1280V256H1024V0H256Z" glyph-name="zero" horiz-adv-x="1536" unicode="0"/><glyph d="M0 1536H256V1792H768V0H256V1280H0V1536Z" glyph-name="one" horiz-adv-x="1024" unicode="1"/><glyph d="M0 768H256V1024H768V1536H0V1792H1024V1536H1280V1024H1024V768H512V256H1280V0H0V768Z" glyph-name="two" horiz-adv-x="1536" unicode="2"/><glyph d="M0 1792H1024V1536H1280V1024H1024V768H1280V256H1024V0H0V256H768V768H256V1024H768V1536H0V1792Z" glyph-name="three" horiz-adv-x="1536" unicode="3"/><glyph d="M512 1024H256V1280H512V1024ZM768 1280H514L512 1282V1536H768V1792H1280V0H768V512H0V1024H256V768H768V1280Z" glyph-name="four" horiz-adv-x="1536" unicode="4"/><glyph d="M1280 1024V256H1024V0H0V256H768V1024H0V1792H1024V1536H256V1280H1024V1024H1280Z" glyph-name="five" horiz-adv-x="1536" unicode="5"/><glyph d="M512 1024V256H768V1024H512ZM1280 1024V256H1024V0H256V256H0V1536H256V1792H1024V1536H512V1280H1024V1024H1280Z" glyph-name="six" horiz-adv-x="1536" unicode="6"/><glyph d="M256 768H512V1280H768V1536H0V1792H1280V1280H1024V768H768V0H256V768Z" glyph-name="seven" horiz-adv-x="1536" unicode="7"/><glyph d="M768 1024V1536H512V1024H768ZM768 256V768H512V256H768ZM1280 768V256H1024V0H256V256H0V768H256V1024H0V1536H256V1792H1024V1536H1280V1024H1024V768H1280Z" glyph-name="eight" horiz-adv-x="1536" unicode="8"/><glyph d="M512 768H768V1536H512V768ZM256 0V256H768V512H256V768H0V1536H256V1792H1024V1536H1280V256H1024V0H256Z" glyph-name="nine" horiz-adv-x="1536" unicode="9"/><glyph d="M0 1280H512V768H0V1280ZM0 512H512V0H0V512Z" glyph-name="colon" horiz-adv-x="768" unicode=":"/><glyph d="M0 256H256V512H512V0H256V-256H0V256ZM0 1280H512V768H0V1280Z" glyph-name="semicolon" horiz-adv-x="768" unicode=";"/><glyph d="M1024 512V0H768V256H512V512H256V768H0V1024H256V1280H512V1536H768V1792H1024V1280H768V1024H512V768H768V512H1024Z" glyph-name="less" horiz-adv-x="1280" unicode="&lt;"/><glyph d="M0 256V512H1024V256H0ZM0 768V1024H1024V768H0Z" glyph-name="equal" horiz-adv-x="1280" unicode="="/><glyph d="M256 512V768H512V1024H256V1280H0V1792H256V1536H512V1280H768V1024H1024V768H768V512H512V256H256V0H0V512H256Z" glyph-name="greater" horiz-adv-x="1280" unicode="&gt;"/><glyph d="M256 256H768V0H256V256ZM256 1024H512V1280H768V1536H0V1792H1024V1536H1280V1280H1024V1024H768V512H256V1024Z" glyph-name="question" horiz-adv-x="1536" unicode="?"/><glyph d="M512 512H768V768H512V512ZM512 1024H1024V1280H512V1024ZM1280 0V-256H256V0H0V1280H256V1536H1280V1280H1536V256H512V0H1280Z" glyph-name="at" horiz-adv-x="1792" unicode="@"/><glyph d="M512 512V0H0V1536H256V1792H1024V1536H1280V0H768V512H512ZM512 1536V768H768V1536H512Z" glyph-name="A" horiz-adv-x="1536" unicode="A"/><glyph d="M512 1280H768V1536H512V1280ZM768 1024H512V256H768V1024ZM1024 1792V1536H1280V1280H1024V1024H1280V256H1024V0H0V1792H1024Z" glyph-name="B" horiz-adv-x="1536" unicode="B"/><glyph d="M256 1792H1280V1536H512V256H1280V0H256V256H0V1536H256V1792Z" glyph-name="C" horiz-adv-x="1536" unicode="C"/><glyph d="M768 256V1536H512V256H768ZM1024 1792V1536H1280V256H1024V0H0V1792H1024Z" glyph-name="D" horiz-adv-x="1536" unicode="D"/><glyph d="M1024 1280V1024H512V256H1280V0H0V1792H1280V1536H512V1280H1024Z" glyph-name="E" horiz-adv-x="1536" unicode="E"/><glyph d="M1024 1280V1024H512V0H0V1792H1280V1536H512V1280H1024Z" glyph-name="F" horiz-adv-x="1536" unicode="F"/><glyph d="M256 1792H1024V1536H512V256H768V1024H1280V0H256V256H0V1536H256V1792Z" glyph-name="G" horiz-adv-x="1536" unicode="G"/><glyph d="M0 1792H512V1280H768V1792H1280V0H768V1024H512V0H0V1792Z" glyph-name="H" horiz-adv-x="1536" unicode="H"/><glyph d="M0 0V1792H512V0H0Z" glyph-name="I" horiz-adv-x="768" unicode="I"/><glyph d="M0 0V256H512V1792H1024V256H768V0H0Z" glyph-name="J" horiz-adv-x="1280" unicode="J"/><glyph d="M1024 256H768V512H512V0H0V1792H512V1280H768V1536H1024V1792H1536V1536H1280V1280H1024V1024H768V768H1024V512H1280V256H1536V0H1024V256Z" glyph-name="K" horiz-adv-x="1792" unicode="K"/><glyph d="M0 1792H512V256H1024V0H0V1792Z" glyph-name="L" horiz-adv-x="1280" unicode="L"/><glyph d="M1280 768H1024V512H768V768H512V0H0V1792H256V1536H512V1280H768V1024H1024V1280H1280V1536H1536V1792H1792V0H1280V768Z" glyph-name="M" horiz-adv-x="2048" unicode="M"/><glyph d="M1280 0V256H1024V512H768V768H512V0H0V1792H256V1536H512V1280H768V1024H1024V1792H1536V0H1280Z" glyph-name="N" horiz-adv-x="1792" unicode="N"/><glyph d="M1024 256V1536H512V256H1024ZM256 0V256H0V1536H256V1792H1280V1536H1536V256H1280V0H256Z" glyph-name="O" horiz-adv-x="1792" unicode="O"/><glyph d="M768 768V1536H512V768H768ZM1024 1792V1536H1280V768H1024V512H512V0H0V1792H1024Z" glyph-name="P" horiz-adv-x="1536" unicode="P"/><glyph d="M768 256V512H1024V1536H512V256H768ZM1024 0H256V256H0V1536H256V1792H1280V1536H1536V256H1280V0H1536V-256H1024V0Z" glyph-name="Q" horiz-adv-x="1792" unicode="Q"/><glyph d="M768 768V1536H512V768H768ZM1280 256V0H768V512H512V0H0V1792H1024V1536H1280V768H1024V256H1280Z" glyph-name="R" horiz-adv-x="1536" unicode="R"/><glyph d="M0 256H512V768H256V1024H0V1536H256V1792H1024V1536H512V1024H768V768H1024V256H768V0H0V256Z" glyph-name="S" horiz-adv-x="1280" unicode="S"/><glyph d="M1536 1792V1536H1024V0H512V1536H0V1792H1536Z" glyph-name="T" horiz-adv-x="1792" unicode="T"/><glyph d="M768 256V1792H1280V256H1024V0H256V256H0V1792H512V256H768Z" glyph-name="U" horiz-adv-x="1536" unicode="U"/><glyph d="M512 512H256V1024H0V1792H512V1024H1024V1792H1536V1024H1280V512H1024V0H512V512Z" glyph-name="V" horiz-adv-x="1792" unicode="V"/><glyph d="M1280 1792H1792V768H1536V0H1024V256H768V0H256V768H0V1792H512V1024H768V1280H1024V1024H1280V1792Z" glyph-name="W" horiz-adv-x="2048" unicode="W"/><glyph d="M0 0V512H256V768H512V1024H256V1280H0V1792H512V1280H1024V1792H1536V1280H1280V1024H1024V768H1280V512H1536V0H1024V512H512V0H0Z" glyph-name="X" horiz-adv-x="1792" unicode="X"/><glyph d="M512 1024H256V1280H0V1792H512V1280H1024V1792H1536V1280H1280V1024H1024V0H512V1024Z" glyph-name="Y" horiz-adv-x="1792" unicode="Y"/><glyph d="M1280 1024H1024V768H768V512H512V256H1280V0H0V768H256V1024H512V1280H768V1536H0V1792H1280V1024Z" glyph-name="Z" horiz-adv-x="1536" unicode="Z"/><glyph d="M0 1792H768V1536H512V0H768V-256H0V1792Z" glyph-name="bracketleft" horiz-adv-x="1024" unicode="["/><glyph d="M256 1024H0V1797H256V1280H512V768H768V0H512V507H256V1024Z" glyph-name="backslash" horiz-adv-x="1024" unicode="\"/><glyph d="M768 -256H0V0H256V1536H0V1792H768V-256Z" glyph-name="bracketright" horiz-adv-x="1024" unicode="]"/><glyph d="M0 1536H256V1792H512V1536H768V1024H512V1280H256V1024H0V1536Z" glyph-name="asciicircum" horiz-adv-x="1024" unicode="^"/><glyph d="M0 256H1536V0H0V256Z" glyph-name="underscore" horiz-adv-x="1536" unicode="_"/><glyph d="M256 1536H0V1792H256V1536H512V1280H256V1536Z" glyph-name="grave" horiz-adv-x="768" unicode="`"/><glyph d="M512 256H768V512H512V256ZM1280 1024V0H256V256H0V512H256V768H768V1024H256V1280H1024V1024H1280Z" glyph-name="a" horiz-adv-x="1536" unicode="a"/><glyph d="M768 1024H512V256H768V1024ZM1024 1280V1024H1280V256H1024V0H0V1792H512V1280H1024Z" glyph-name="b" horiz-adv-x="1536" unicode="b"/><glyph d="M0 256V1024H256V1280H1024V1024H512V256H1024V0H256V256H0Z" glyph-name="c" horiz-adv-x="1280" unicode="c"/><glyph d="M768 1024H512V256H768V1024ZM256 0V256H0V1024H256V1280H768V1792H1280V0H256Z" glyph-name="d" horiz-adv-x="1536" unicode="d"/><glyph d="M512 768H768V1024H512V768ZM1280 1024V512H512V256H1280V0H256V256H0V1024H256V1280H1024V1024H1280Z" glyph-name="e" horiz-adv-x="1536" unicode="e"/><glyph d="M768 1280V1024H512V0H0V1536H256V1792H768V1536H512V1280H768Z" glyph-name="f" horiz-adv-x="1024" unicode="f"/><glyph d="M512 512H768V1024H512V512ZM256 0H768V256H256V512H0V1024H256V1280H1280V0H1024V-256H256V0Z" glyph-name="g" horiz-adv-x="1536" unicode="g"/><glyph d="M768 0V1024H512V0H0V1792H512V1280H1024V1024H1280V0H768Z" glyph-name="h" horiz-adv-x="1536" unicode="h"/><glyph d="M512 1536H0V1792H512V1536ZM0 0V1280H512V0H0Z" glyph-name="i" horiz-adv-x="768" unicode="i"/><glyph d="M768 1536H256V1792H768V1536ZM0 0H256V1280H768V0H512V-256H0V0Z" glyph-name="j" horiz-adv-x="1024" unicode="j"/><glyph d="M512 0H0V1792H512V1024H768V1280H1280V1024H1024V768H768V512H1024V256H1280V0H768V256H512V0Z" glyph-name="k" horiz-adv-x="1536" unicode="k"/><glyph d="M0 1792H512V0H0V1792Z" glyph-name="l" horiz-adv-x="768" unicode="l"/><glyph d="M1536 1024H1280V0H768V1024H512V0H0V1280H1792V1024H2048V0H1536V1024Z" glyph-name="m" horiz-adv-x="2304" unicode="m"/><glyph d="M1280 1024V0H768V1024H512V0H0V1280H1024V1024H1280Z" glyph-name="n" horiz-adv-x="1536" unicode="n"/><glyph d="M768 256V1024H512V256H768ZM256 0V256H0V1024H256V1280H1024V1024H1280V256H1024V0H256Z" glyph-name="o" horiz-adv-x="1536" unicode="o"/><glyph d="M768 512V1024H512V512H768ZM1024 1280V1024H1280V512H1024V256H512V-256H0V1280H1024Z" glyph-name="p" horiz-adv-x="1536" unicode="p"/><glyph d="M1280 1280V-256H768V256H256V512H0V1024H256V1280H1280ZM768 512V1024H512V512H768Z" glyph-name="q" horiz-adv-x="1536" unicode="q"/><glyph d="M0 0V1280H512V1024H768V1280H1024V768H512V0H0Z" glyph-name="r" horiz-adv-x="1280" unicode="r"/><glyph d="M1024 768V256H768V0H0V256H512V512H0V1024H256V1280H1024V1024H512V768H1024Z" glyph-name="s" horiz-adv-x="1280" unicode="s"/><glyph d="M768 256V0H256V256H0V1792H512V1280H768V1024H512V256H768Z" glyph-name="t" horiz-adv-x="1024" unicode="t"/><glyph d="M256 256H0V1280H512V256H768V1280H1280V0H256V256Z" glyph-name="u" horiz-adv-x="1536" unicode="u"/><glyph d="M512 256H256V768H0V1280H512V768H768V1280H1280V768H1024V256H768V0H512V256Z" glyph-name="v" horiz-adv-x="1536" unicode="v"/><glyph d="M1280 1280H1792V512H1536V0H1024V256H768V0H256V512H0V1280H512V512H768V1024H1024V512H1280V1280Z" glyph-name="w" horiz-adv-x="2048" unicode="w"/><glyph d="M0 0V512H256V768H0V1280H512V768H768V1280H1280V768H1024V512H1280V0H768V512H512V0H0Z" glyph-name="x" horiz-adv-x="1536" unicode="x"/><glyph d="M768 512V1280H1280V0H1024V-256H256V0H768V256H256V512H0V1280H512V512H768Z" glyph-name="y" horiz-adv-x="1536" unicode="y"/><glyph d="M0 1280H1280V1024H1024V768H768V512H512V256H1280V0H0V512H256V768H512V1024H0V1280Z" glyph-name="z" horiz-adv-x="1536" unicode="z"/><glyph d="M0 1792H768V1536H512V0H768V-256H0V1792Z" glyph-name="braceleft" horiz-adv-x="1024" unicode="{"/><glyph d="M0 1792H512V-256H0V1792Z" glyph-name="bar" horiz-adv-x="768" unicode="|"/><glyph d="M768 -256H0V0H256V1536H0V1792H768V-256Z" glyph-name="braceright" horiz-adv-x="1024" unicode="}"/><glyph d="M1024 1792H1280V1536H1024V1792ZM256 1280H0V1536H256V1280ZM256 1792H768V1536H1024V1280H512V1536H256V1792Z" glyph-name="asciitilde" horiz-adv-x="1536" unicode="~"/></font>
</defs>
</svg>
